<svg xmlns="http://www.w3.org/2000/svg" width="1920" height="1080.001" viewBox="0 0 1920 1080.001"><path d="M1920,1080H0V0H1920V1080ZM1215.2,540,1106.4,660H1324L1215.2,540ZM966.606,420,856.8,660h217.6Zm-251.012,0a120.865,120.865,0,0,0-24.156,2.516,119.357,119.357,0,0,0-42.821,18.174,120.352,120.352,0,0,0-43.3,52.875,119.414,119.414,0,0,0-6.932,22.525,121.177,121.177,0,0,0,.1,48.315,119.357,119.357,0,0,0,18.1,42.822,120.357,120.357,0,0,0,52.771,43.368,119.4,119.4,0,0,0,22.5,6.973A120.869,120.869,0,0,0,716,660h.117a120.877,120.877,0,0,0,24.162-2.457,119.349,119.349,0,0,0,42.865-18.07,120.347,120.347,0,0,0,43.43-52.77A119.426,119.426,0,0,0,833.56,564.2,120.9,120.9,0,0,0,836,540.031H715.594Zm390.807,0,108.8,120L1324,420Z" fill="#09090b"/></svg>