<svg xmlns="http://www.w3.org/2000/svg" width="1919.998" height="782" viewBox="0 0 1919.998 782"><path d="M17236.5,5223.5h-1920v-782h1920Zm-1530.941-348.309a118.277,118.277,0,0,0-44.411,8.381,108.768,108.768,0,0,0-19,9.922,105.161,105.161,0,0,0-29.762,29.464,106.981,106.981,0,0,0-10.018,18.8,117.7,117.7,0,0,0,0,87.62,106.66,106.66,0,0,0,10.018,18.744,105.223,105.223,0,0,0,29.762,29.4,109.021,109.021,0,0,0,19,9.91,118.378,118.378,0,0,0,44.411,8.375v0h.01a113.98,113.98,0,0,0,39.154-6.719,101.843,101.843,0,0,0,55.449-48.2,114.88,114.88,0,0,0,12.19-37.778h-59.172c-2.9,11.5-8.854,21.183-17.22,28.008a47.283,47.283,0,0,1-30.286,10.509,51.193,51.193,0,0,1-20.6-4.188,48.441,48.441,0,0,1-16.324-11.642,53.288,53.288,0,0,1-10.749-17.716,64.207,64.207,0,0,1-3.872-22.408,65,65,0,0,1,3.872-22.535,53.987,53.987,0,0,1,10.749-17.872,48.581,48.581,0,0,1,16.324-11.775,50.64,50.64,0,0,1,20.6-4.244,48.239,48.239,0,0,1,29.314,9.683,53.142,53.142,0,0,1,18.144,25.836h58.614a110.842,110.842,0,0,0-12.454-36.459,101.5,101.5,0,0,0-23.207-28.3,102.686,102.686,0,0,0-31.925-18.311A114.51,114.51,0,0,0,15705.559,4875.194Zm560.653,181.2h74.434l11.572,34.109h63.71l-84.3-210h-56.556l-82.488,210h62l11.632-34.108Zm331.933-175.891v210h136.91l0-50.184h-79.316l0-31.436h68.973l0-47.454h-68.973l0-30.921h76.773l0-50.006h-134.373Zm-198.021,0v52.091h57.051V5090.5h58.1l0-157.909h57.043l0-52.091h-172.2Zm-357.282,0v210h136.911v-50.184h-79.309v-31.436h68.971v-47.454h-68.971v-30.921h76.77V4880.5Zm-123.969,145.745,34.07,64.255h64.571l-41.692-76.376a71.128,71.128,0,0,0,13.958-10.882,65.772,65.772,0,0,0,17.081-30.033,73.256,73.256,0,0,0,2.291-18.392,77.483,77.483,0,0,0-5.835-30.132,68.544,68.544,0,0,0-16.232-23.489,73.047,73.047,0,0,0-24.72-15.257,88.914,88.914,0,0,0-31.3-5.439h-91.019v210h57.853v-64.255h20.976Zm914.5-122.226h0v58.489l60.664,30.6-60.662,30.013,0,58.493,129-79.447,0-17.083-129-81.07ZM15801.587,4609.5l65.748,210h50.928l39.512-101.362,40.286,101.362h50.928l64.757-210h-61.608l-33.386,121.127-50.924-120.089h-20.02l-50.027,120-34.066-121.035Zm334.211,0v210h136.911V4769.32H16193.4v-31.44h68.976v-47.454H16193.4V4659.51h76.774V4609.5Zm-415.133,23.519h0l-129,81.074v17.083l129,79.443v-58.489L15660,4722.113l60.663-30.6v-58.494Zm605.862,378.1H16280.3l23.009-65.074,23.217,65.073Zm-402.2-33.608H15897.9v-45.6h26.427c7.768,0,14.271,2.229,18.808,6.447a20.237,20.237,0,0,1,4.969,7.2,25.112,25.112,0,0,1,0,18.2,20.463,20.463,0,0,1-4.969,7.245C15938.586,4975.261,15932.082,4977.512,15924.323,4977.512Z" transform="translate(-15316.502 -4441.503)" fill="#FC957E"/></svg>